<svg width="24" height="25" viewBox="0 0 24 25" fill="none" xmlns="http://www.w3.org/2000/svg">
<path d="M15 22.9157H9C3.57 22.9157 1.25 20.5957 1.25 15.1657V9.16573C1.25 3.73573 3.57 1.41573 9 1.41573H15C20.43 1.41573 22.75 3.73573 22.75 9.16573V15.1657C22.75 20.5957 20.43 22.9157 15 22.9157ZM9 2.91573C4.39 2.91573 2.75 4.55573 2.75 9.16573V15.1657C2.75 19.7757 4.39 21.4157 9 21.4157H15C19.61 21.4157 21.25 19.7757 21.25 15.1657V9.16573C21.25 4.55573 19.61 2.91573 15 2.91573H9Z" fill="#F1F0FB"/>
<path d="M15.5 19.4157C13.98 19.4157 12.75 18.1857 12.75 16.6657V7.66573C12.75 6.14573 13.98 4.91573 15.5 4.91573C17.02 4.91573 18.25 6.14573 18.25 7.66573V16.6657C18.25 18.1857 17.02 19.4157 15.5 19.4157ZM15.5 6.41573C14.81 6.41573 14.25 6.97573 14.25 7.66573V16.6657C14.25 17.3557 14.81 17.9157 15.5 17.9157C16.19 17.9157 16.75 17.3557 16.75 16.6657V7.66573C16.75 6.97573 16.19 6.41573 15.5 6.41573Z" fill="#F1F0FB"/>
<path d="M8.5 19.4157C6.98 19.4157 5.75 18.1857 5.75 16.6657V13.1657C5.75 11.6457 6.98 10.4157 8.5 10.4157C10.02 10.4157 11.25 11.6457 11.25 13.1657V16.6657C11.25 18.1857 10.02 19.4157 8.5 19.4157ZM8.5 11.9157C7.81 11.9157 7.25 12.4757 7.25 13.1657V16.6657C7.25 17.3557 7.81 17.9157 8.5 17.9157C9.19 17.9157 9.75 17.3557 9.75 16.6657V13.1657C9.75 12.4757 9.19 11.9157 8.5 11.9157Z" fill="#F1F0FB"/>
</svg>
