<svg width="55" height="55" viewBox="0 0 55 55" fill="none" xmlns="http://www.w3.org/2000/svg">
<path d="M37.862 20.9135C34.0973 20.5404 30.31 20.3482 26.534 20.3482C24.2955 20.3482 22.057 20.4613 19.8186 20.6874L17.5123 20.9135" stroke="#F1F0FB" stroke-width="1.69581" stroke-linecap="round" stroke-linejoin="round"/>
<path d="M23.7303 19.7716L23.979 18.2906C24.1599 17.2166 24.2956 16.4139 26.2062 16.4139H29.1682C31.0788 16.4139 31.2258 17.2618 31.3954 18.3019L31.6441 19.7716" stroke="#F1F0FB" stroke-width="1.69581" stroke-linecap="round" stroke-linejoin="round"/>
<path d="M35.4314 24.486L34.6966 35.8706C34.5722 37.6455 34.4705 39.0248 31.3162 39.0248H24.0582C20.904 39.0248 20.8022 37.6455 20.6778 35.8706L19.943 24.486" stroke="#F1F0FB" stroke-width="1.69581" stroke-linecap="round" stroke-linejoin="round"/>
<path d="M25.7992 32.8068H29.5639" stroke="#F1F0FB" stroke-width="1.69581" stroke-linecap="round" stroke-linejoin="round"/>
<path d="M24.8608 28.2846H30.5135" stroke="#F1F0FB" stroke-width="1.69581" stroke-linecap="round" stroke-linejoin="round"/>
</svg>
