<svg width="18" height="19" viewBox="0 0 18 19" fill="none" xmlns="http://www.w3.org/2000/svg">
<path d="M3.73334 13.0923C3.42721 13.0923 3.17334 12.8384 3.17334 12.5323V7.30561C3.17334 6.99947 3.42721 6.74561 3.73334 6.74561C4.03947 6.74561 4.29334 6.99947 4.29334 7.30561V12.5323C4.29334 12.8384 4.03947 13.0923 3.73334 13.0923Z" fill="#F1F0FB"/>
<path d="M3.92002 7.49228C2.26988 7.49228 0.93335 6.15575 0.93335 4.50562C0.93335 2.85548 2.26988 1.51895 3.92002 1.51895C5.57015 1.51895 6.90668 2.85548 6.90668 4.50562C6.90668 6.15575 5.57015 7.49228 3.92002 7.49228ZM3.92002 2.63895C2.88962 2.63895 2.05335 3.47522 2.05335 4.50562C2.05335 5.53602 2.88962 6.37228 3.92002 6.37228C4.95042 6.37228 5.78668 5.53602 5.78668 4.50562C5.78668 3.47522 4.95042 2.63895 3.92002 2.63895Z" fill="#F1F0FB"/>
<path d="M3.73335 17.5723C2.18775 17.5723 0.93335 16.3179 0.93335 14.7723C0.93335 13.2267 2.18775 11.9723 3.73335 11.9723C5.27895 11.9723 6.53335 13.2267 6.53335 14.7723C6.53335 16.3179 5.27895 17.5723 3.73335 17.5723ZM3.73335 13.0923C2.80748 13.0923 2.05335 13.8464 2.05335 14.7723C2.05335 15.6981 2.80748 16.4523 3.73335 16.4523C4.65922 16.4523 5.41335 15.6981 5.41335 14.7723C5.41335 13.8464 4.65922 13.0923 3.73335 13.0923Z" fill="#F1F0FB"/>
<path d="M14.1867 17.5723C12.6411 17.5723 11.3867 16.3179 11.3867 14.7723C11.3867 13.2267 12.6411 11.9723 14.1867 11.9723C15.7323 11.9723 16.9867 13.2267 16.9867 14.7723C16.9867 16.3179 15.7323 17.5723 14.1867 17.5723ZM14.1867 13.0923C13.2608 13.0923 12.5067 13.8464 12.5067 14.7723C12.5067 15.6981 13.2608 16.4523 14.1867 16.4523C15.1125 16.4523 15.8667 15.6981 15.8667 14.7723C15.8667 13.8464 15.1125 13.0923 14.1867 13.0923Z" fill="#F1F0FB"/>
<path d="M13.567 13.1222C13.3356 13.1222 13.119 12.9803 13.0369 12.7488C12.4918 11.1808 11.0134 10.128 9.34835 10.128C9.34089 10.128 9.34089 10.128 9.33342 10.128L6.77235 10.1355C6.76489 10.1355 6.76489 10.1355 6.75742 10.1355C5.12222 10.1355 3.69609 9.03043 3.28542 7.44749C3.21075 7.14883 3.38995 6.84269 3.68862 6.76802C3.98729 6.69336 4.29342 6.87256 4.36809 7.17123C4.65182 8.26136 5.62995 9.02295 6.75742 9.02295H6.76489L9.32595 9.0155C9.33342 9.0155 9.34089 9.0155 9.34835 9.0155C11.4838 9.0155 13.3878 10.367 14.0897 12.3904C14.1942 12.6816 14.0374 13.0027 13.7462 13.0998C13.6865 13.1072 13.6268 13.1222 13.567 13.1222Z" fill="#F1F0FB"/>
</svg>
