<svg width="41" height="42" viewBox="0 0 41 42" fill="none" xmlns="http://www.w3.org/2000/svg">
<path opacity="0.4" d="M20.4319 37.6923C29.7976 37.6923 37.39 30.0999 37.39 20.7342C37.39 11.3685 29.7976 3.77606 20.4319 3.77606C11.0662 3.77606 3.47375 11.3685 3.47375 20.7342C3.47375 30.0999 11.0662 37.6923 20.4319 37.6923Z" fill="#8076B0"/>
<path d="M25.5193 17.7326L20.6015 14.9006C19.3805 14.1884 17.9051 14.1884 16.6841 14.9006C15.4631 15.6129 14.7339 16.8678 14.7339 18.2923V23.9732C14.7339 25.3808 15.4631 26.6526 16.6841 27.3649C17.2946 27.721 17.973 27.8906 18.6343 27.8906C19.3126 27.8906 19.974 27.721 20.5845 27.3649L25.5024 24.5329C26.7233 23.8206 27.4525 22.5657 27.4525 21.1412C27.4865 19.7167 26.7573 18.4449 25.5193 17.7326Z" fill="#8076B0"/>
</svg>
