<svg width="19" height="19" viewBox="0 0 19 19" fill="none" xmlns="http://www.w3.org/2000/svg">
<path d="M13.4398 6.70969L7.04446 13.105C6.82595 13.3235 6.46355 13.3235 6.24504 13.105C6.02654 12.8865 6.02654 12.5241 6.24504 12.3056L12.6404 5.91027C12.8589 5.69177 13.2213 5.69177 13.4398 5.91027C13.6583 6.12878 13.6583 6.49118 13.4398 6.70969Z" fill="#F1F0FB"/>
<path d="M13.4398 13.105C13.2213 13.3235 12.8589 13.3235 12.6404 13.105L6.24504 6.70967C6.02654 6.49117 6.02654 6.12877 6.24504 5.91026C6.46355 5.69175 6.82595 5.69175 7.04446 5.91026L13.4398 12.3056C13.6583 12.5241 13.6583 12.8865 13.4398 13.105Z" fill="#F1F0FB"/>
</svg>
